<svg xmlns="http://www.w3.org/2000/svg" width="100" height="112" viewBox="0 0 100 112"><path d="M73.238 9.73c-5.427 0-9.841 4.415-9.841 9.841V38.22a9.78 9.78 0 0 0-6.032-2.082c-3.219 0-6.073 1.561-7.869 3.957-1.787-2.498-4.704-4.135-8.003-4.135a9.776 9.776 0 0 0-6.031 2.082V21.754c0-5.426-4.415-9.84-9.841-9.84-5.426 0-9.84 4.414-9.84 9.84V71.215c0 18.554 15.094 33.649 33.648 33.649 18.554 0 33.649-15.095 33.649-33.649V19.571c0-5.426-4.415-9.841-9.84-9.841zm-6.032 36.248V19.571a6.038 6.038 0 0 1 6.031-6.032 6.039 6.039 0 0 1 6.031 6.032v50.772l-9.16-9.161a9.772 9.772 0 0 0-2.903-1.996V45.978zm-15.873 0a6.039 6.039 0 0 1 6.032-6.031 6.039 6.039 0 0 1 6.032 6.031v12.338a9.8 9.8 0 0 0-7.205 2.866 9.812 9.812 0 0 0-2.876 6.914 6.01 6.01 0 0 1-1.982-4.458v-17.66zM35.462 45.8a6.038 6.038 0 0 1 6.031-6.031 6.037 6.037 0 0 1 6.031 6.031v17.838a6.038 6.038 0 0 1-6.031 6.032 6.038 6.038 0 0 1-6.031-6.032V45.8zm13.967 55.253c-16.453 0-29.839-13.386-29.839-29.839v-49.46a6.039 6.039 0 0 1 6.031-6.032 6.039 6.039 0 0 1 6.032 6.032v41.885c0 5.427 4.414 9.841 9.841 9.841 3.259 0 6.144-1.598 7.936-4.046a9.887 9.887 0 0 0 5.232 3.662c.416.714.92 1.391 1.531 2.003l9.448 9.448c.372.372.859.557 1.346.557a1.904 1.904 0 0 0 1.347-3.25l-8.659-8.659-.789-.789a5.982 5.982 0 0 1-1.562-2.737 6.03 6.03 0 0 1 1.562-5.793 6.008 6.008 0 0 1 4.512-1.752 6.003 6.003 0 0 1 3.807 1.561c.07.064.143.123.211.191l11.551 11.551c-2.055 14.465-14.515 25.626-29.538 25.626z" fill="#231815"/><animate xmlns="http://www.w3.org/2000/svg" attributeType="CSS" attributeName="opacity" from=".3" to=".9" dur=".9s" repeatCount="indefinite"/></svg>